# AST/ASF file generated using VICON BodyLanguage
# -----------------------------------------------
:version 1.10
:name VICON
:units
  mass 1.0
  length 0.45
  angle deg
:documentation
   .ast/.asf automatically generated from VICON data using
   VICON BodyBuilder and BodyLanguage model FoxedUp or BRILLIANT.MOD
:root
   order TX TY TZ RX RY RZ
   axis XYZ
   position 0 0 0  
   orientation 0 0 0 
:bonedata
  begin
     id 1 
     name lhipjoint
     direction 0.645893 -0.654526 0.392961 
     length 2.38111 
     axis 0 0 0  XYZ
  end
  begin
     id 2 
     name lfemur
     direction 0.34202 -0.939693 0  
     length 6.6822  
     axis 0 0 20  XYZ
    dof rx ry rz
    limits (-160.0 20.0)
           (-70.0 70.0)
           (-60.0 70.0)
  end
  begin
     id 3 
     name ltibia
     direction 0.34202 -0.939693 0   
     length 6.93904   
     axis 0 0 20   XYZ
    dof rx
    limits (-10.0 170.0)
  end
  begin
     id 4 
     name lfoot
     direction 0.0694967 -0.190941 0.979138   
     length 2.13616   
     axis -90 7.62852e-016 20   XYZ
    dof rx rz
    limits (-45.0 90.0)
           (-70.0 20.0)
  end
  begin
     id 5 
     name ltoes
     direction 1.535e-011 -4.2202e-011 1   
     length 1.07536   
     axis -90 7.62852e-016 20   XYZ
    dof rx
    limits (-90.0 20.0)
  end
  begin
     id 6 
     name rhipjoint
     direction -0.700219 -0.612087 0.367481   
     length 2.54621  
     axis 0 0 0  XYZ 
  end
  begin
     id 7 
     name rfemur
     direction -0.34202 -0.939693 0   
     length 6.55353   
     axis 0 0 -20   XYZ
    dof rx ry rz
    limits (-160.0 20.0)
           (-70.0 70.0)
           (-70.0 60.0)
  end
  begin
     id 8 
     name rtibia
     direction -0.34202 -0.939693 0   
     length 6.8736   
     axis 0 0 -20   XYZ
    dof rx
    limits (-10.0 170.0)
 end
 begin
     id 9 
     name rfoot
     direction -0.0679995 -0.186827 0.980037   
     length 2.1218  
     axis -90 -7.62852e-016 -20   XYZ
    dof rx rz
    limits (-45.0 90.0)
           (-20.0 70.0)
  end
  begin
     id 10 
     name rtoes
     direction -1.53589e-011 -4.21772e-011 1   
     length 1.06864   
     axis -90 -7.62852e-016 -20   XYZ
    dof rx
    limits (-90.0 20.0)
  end
  begin
     id 11 
     name lowerback
     direction -0.0416607 0.996347 -0.0745409   
     length 2.12205   
     axis 0 0 0   XYZ
    dof rx ry rz
    limits (-20.0 45.0)
           (-30.0 30.0)
           (-30.0 30.0)
  end
  begin
     id 12 
     name upperback
     direction -0.000153993 0.999276 -0.0380568   
     length 2.12759   
     axis 0 0 0   XYZ
    dof rx ry rz
    limits (-20.0 45.0)
           (-30.0 30.0)
           (-30.0 30.0)
  end
  begin
     id 13 
     name thorax
     direction 0.0187671 0.999821 -0.00241421   
     length 2.13704   
     axis 0 0 0   XYZ
    dof rx ry rz
    limits (-20.0 45.0)
           (-30.0 30.0)
           (-30.0 30.0)
  end
  begin
     id 14 
     name lowerneck
     direction 0.0268157 0.964865 0.261374   
     length 1.65253   
     axis 0 0 0   XYZ
    dof rx ry rz
    limits (-20.0 45.0)
           (-30.0 30.0)
           (-30.0 30.0)
  end
  begin
     id 15 
     name upperneck
     direction 0.00263774 0.939908 -0.341418   
     length 1.72375   
     axis 0 0 0   XYZ
    dof rx ry rz
    limits (-20.0 45.0)
           (-30.0 30.0)
           (-30.0 30.0)
  end
  begin
     id 16
     name head
     direction -0.00526001 0.989001 -0.147818  
     length 1.74878  
     axis 0 0 0   XYZ
    dof rx ry rz
    limits (-20.0 45.0)
           (-30.0 30.0)
           (-30.0 30.0)
  end
  begin
     id 17 
     name lclavicle
     direction 0.881214 0.461162 -0.103884  
     length 3.25108  
     axis 0 0 0   XYZ
    dof ry rz
    limits (-20.0 10.0)
           (0.0 20.0)
  end
  begin
     id 18 
     name lhumerus
     direction 1 -4.4899e-011 3.38092e-027   
     length 4.87408   
     axis 180 -30 -90   XYZ
    dof rx ry rz
    limits (-60.0 90.0)
           (-90.0 90.0)
           (-90.0 90.0)
  end
  begin
     id 19
     name lradius
     direction 1 -4.48931e-011 9.96288e-027   
     length 2.76729   
     axis 180 -30 -90   XYZ
    dof rx
    limits (-10.0 170.0)
  end
  begin
     id 20
     name lwrist
     direction 1 -4.4896e-011 1.50617e-026   
     length 1.38364   
     axis -9.31234e-015 90 90   XYZ
    dof ry
    limits (-180.0 0.0)
 end
  begin
     id 21 
     name lhand
     direction 1 -4.49038e-011 3.01286e-026   
     length 0.98922   
     axis -1.92217e-014 90 90   XYZ
    dof rx rz
    limits (-90.0 90.0)
           (-45.0 45.0)
  end
  begin
     id 22 
     name lfingers
     direction 1 -4.49051e-011 6.02588e-026   
     length 0.797535   
     axis -3.84436e-014 90 90   XYZ
    dof rx
    limits (0.0 90.0)
  end
  begin
     id 23
     name lthumb
     direction 0.707107 -6.34901e-011 0.707107   
     length 1.14511   
     axis -90 45 2.19363e-014   XYZ
    dof rx rz
    limits (-45.0 45.0)
           (-45.0 45.0)
  end
  begin
     id 24 
     name rclavicle
     direction -0.893894 0.441652 -0.0767889   
     length 3.29361  
     axis 0 0 0   XYZ 
    dof ry rz
    limits (-10.0 20.0)
           (-20.0 0.0)
  end
  begin
     id 25 
     name rhumerus
     direction -1 -4.48945e-011 8.0491e-028  
     length 4.71404   
     axis 180 30 90   XYZ
    dof rx ry rz
    limits (-90.0 60.0)
           (-90.0 90.0)
           (-90.0 90.0)
  end
  begin
     id 26 
     name rradius
     direction -1 -4.48986e-011 9.27795e-027   
     length 2.83468   
     axis 180 30 90   XYZ
    dof rx
    limits (-10.0 170.0)
  end
  begin
     id 27 
     name rwrist
     direction -1 -4.49029e-011 1.5064e-026   
     length 1.41734   
     axis -9.31234e-015 -90 -90   XYZ
    dof ry
    limits (-180.0 0.0)
  end
  begin
     id 28
     name rhand
     direction -1 -4.48857e-011 3.01165e-026   
     length 0.868195   
     axis -1.92217e-014 -90 -90   XYZ
    dof rx rz
    limits (-90.0 90.0)
           (-45.0 45.0)
  end
  begin
     id 29
     name rfingers
     direction -1 -4.49048e-011 6.02585e-026   
     length 0.699961   
     axis -3.84436e-014 -90 -90   XYZ
    dof rx
    limits (0.0 90.0)
  end
  begin
     id 30
     name rthumb
     direction -0.707107 -6.34854e-011 0.707107   
     length 1.00501   
     axis -90 -45 -2.19363e-014   XYZ
    dof rx rz
    limits (-45.0 45.0)
           (-45.0 45.0)
  end
:hierarchy
  begin
    root lhipjoint rhipjoint lowerback
    lhipjoint lfemur
    lfemur ltibia
    ltibia lfoot
    lfoot ltoes
    rhipjoint rfemur
    rfemur rtibia
    rtibia rfoot
    rfoot rtoes
    lowerback upperback
    upperback thorax
    thorax lowerneck lclavicle rclavicle
    lowerneck upperneck
    upperneck head
    lclavicle lhumerus
    lhumerus lradius
    lradius lwrist
    lwrist lhand lthumb
    lhand lfingers
    rclavicle rhumerus
    rhumerus rradius
    rradius rwrist
    rwrist rhand rthumb
    rhand rfingers
  end

#!OML:ASF H:\ManfredObstacles\Project 1\Capture day 2\Session 1\male.ASF
:FULLY-SPECIFIED
:DEGREES
70
root 1.42394 11.7774 24.7757 -176.224 -9.86321 180.474
lowerback 30.0768 3.25589 -2.17206
upperback 13.1526 0.0672517 -0.436593
thorax -1.72068 -1.45096 0.785509
lowerneck -36.8133 -3.05001 -2.38365
upperneck 32.46 -5.77543 4.74603
head 18.6704 -1.92964 1.1126
rclavicle 2.5842e-014 -6.36111e-015
rhumerus -5.5113 3.90409 -82.0282
rradius 40.1156
rwrist 24.0719
rhand -12.0545 -3.65638
rfingers 7.12502
rthumb 14.0045 -33.1646
lclavicle 2.5842e-014 -6.36111e-015
lhumerus -4.89652 -13.099 80.3249
lradius 33.2747
lwrist -36.8246
lhand -13.4537 6.37187
lfingers 7.12502
lthumb 12.6559 35.9684
rfemur -70.8878 2.33991 21.3258
rtibia 103.494
rfoot -21.2478 -27.3788
rtoes -26.2522
lfemur -65.7796 -1.26688 -25.6897
ltibia 93.166
lfoot -11.3155 28.3066
ltoes -0.23482
71
root 1.44361 11.6637 24.7147 -175.931 -9.97068 180.575
lowerback 30.5796 3.31949 -2.16602
upperback 13.258 0.0617311 -0.394833
thorax -1.82305 -1.48145 0.832661
lowerneck -36.7319 -3.13925 -2.48157
upperneck 32.1075 -5.90415 5.00766
head 18.4838 -1.94829 1.21752
rclavicle 1.66979e-014 -2.06736e-014
rhumerus -4.98089 3.91417 -81.8739
rradius 39.4698
rwrist 24.6664
rhand -11.946 -3.67231
rfingers 7.12502
rthumb 14.109 -33.1733
lclavicle 1.66979e-014 -2.06736e-014
lhumerus -4.09023 -13.4814 80.0815
lradius 33.1882
lwrist -37.0649
lhand -13.432 6.35255
lfingers 7.12502
lthumb 12.6768 35.9478
rfemur -72.0061 2.62643 21.1994
rtibia 103.269
rfoot -21.4156 -27.3691
rtoes -26.4366
lfemur -66.7347 -1.16152 -25.5636
ltibia 94.6082
lfoot -12.1157 28.7237
ltoes -0.418368
72
root 1.46427 11.5474 24.6528 -175.649 -10.019 180.663
lowerback 31.0588 3.42553 -2.21154
upperback 13.3611 0.0971096 -0.34985
thorax -1.91756 -1.4941 0.900224
lowerneck -36.5575 -3.25235 -2.63873
upperneck 31.7348 -6.06371 5.33203
head 18.2769 -1.98053 1.3523
rclavicle 0 -1.15295e-014
rhumerus -4.49039 3.95068 -81.6983
rradius 38.8771
rwrist 25.2849
rhand -11.8292 -3.67438
rfingers 7.12502
rthumb 14.2216 -33.1675
lclavicle 0 -1.15295e-014
lhumerus -3.30482 -13.8978 79.8466
lradius 33.1367
lwrist -37.2455
lhand -13.4233 6.35603
lfingers 7.12502
lthumb 12.6852 35.9508
rfemur -73.0443 2.9317 21.0825
rtibia 103.113
rfoot -21.4062 -27.2899
rtoes -26.5686
lfemur -67.6905 -0.975482 -25.4581
ltibia 96.0865
lfoot -12.9257 29.1189
ltoes -0.585012
73
root 1.48586 11.4288 24.5903 -175.383 -10.0231 180.753
lowerback 31.5196 3.56251 -2.28386
upperback 13.4632 0.164541 -0.299453
thorax -2.00503 -1.49248 0.978713
lowerneck -36.3966 -3.36524 -2.78565
upperneck 31.3738 -6.2206 5.63532
head 18.0811 -2.01418 1.47479
rclavicle -2.38542e-015 -3.85642e-014
rhumerus -4.0377 4.0034 -81.5109
rradius 38.3573
rwrist 25.8132
rhand -11.6522 -3.68932
rfingers 7.12502
rthumb 14.3921 -33.1704
lclavicle -2.38542e-015 -3.85642e-014
lhumerus -2.5337 -14.3057 79.6219
lradius 33.1028
lwrist -37.4035
lhand -13.4488 6.33244
lfingers 7.12502
lthumb 12.6606 35.9287
rfemur -73.9885 3.25249 20.9909
rtibia 103.017
rfoot -21.2457 -27.1566
rtoes -26.6431
lfemur -68.6557 -0.720573 -25.3528
ltibia 97.6047
lfoot -13.7319 29.469
ltoes -0.753655
74
root 1.5079 11.308 24.5274 -175.139 -10.004 180.842
lowerback 31.9684 3.718 -2.37152
upperback 13.5673 0.249541 -0.245747
thorax -2.0843 -1.48367 1.0635
lowerneck -36.3231 -3.47398 -2.9028
upperneck 31.0462 -6.36805 5.89191
head 17.9208 -2.04562 1.57227
rclavicle 1.78906e-014 3.81667e-014
rhumerus -3.6373 4.07141 -81.316
rradius 37.9018
rwrist 26.3252
rhand -11.4942 -3.69409
rfingers 7.12502
rthumb 14.5444 -33.1642
lclavicle 1.78906e-014 3.81667e-014
lhumerus -1.7842 -14.7201 79.397
lradius 33.1106
lwrist -37.494
lhand -13.4591 6.29261
lfingers 7.12502
lthumb 12.6506 35.8895
rfemur -74.8192 3.55004 20.9294
rtibia 102.99
rfoot -20.9747 -27.0267
rtoes -25.4467
lfemur -69.6226 -0.423519 -25.2532
ltibia 99.1633
lfoot -14.5063 29.7711
ltoes -0.968255
75
root 1.53041 11.1844 24.4641 -174.918 -9.97882 180.932
lowerback 32.4041 3.88211 -2.46464
upperback 13.6711 0.343943 -0.184416
thorax -2.15748 -1.47086 1.15623
lowerneck -36.2754 -3.56974 -2.9861
upperneck 30.7392 -6.49232 6.09066
head 17.7726 -2.07251 1.64268
rclavicle -2.0276e-014 -1.86858e-014
rhumerus -3.30177 4.15071 -81.1167
rradius 37.5202
rwrist 26.7874
rhand -11.3377 -3.66857
rfingers 7.12502
rthumb 14.6951 -33.1278
lclavicle -2.0276e-014 -1.86858e-014
lhumerus -1.06755 -15.1207 79.1791
lradius 33.1517
lwrist -37.5982
lhand -13.4704 6.24114
lfingers 7.12502
lthumb 12.6397 35.8387
rfemur -75.5377 3.80543 20.9167
rtibia 103.058
rfoot -20.7178 -26.921
rtoes -23.7781
lfemur -70.6021 -0.101114 -25.1494
ltibia 100.766
lfoot -15.2213 30.0159
ltoes -1.26077
76
root 1.55325 11.0587 24.4009 -174.709 -9.96967 181.02
lowerback 32.8234 4.03747 -2.55272
upperback 13.7734 0.43002 -0.120168
thorax -2.22377 -1.46153 1.25147
lowerneck -36.3122 -3.65673 -3.04067
upperneck 30.4703 -6.59713 6.23408
head 17.6583 -2.09448 1.68785
rclavicle 1.55052e-014 -4.37326e-015
rhumerus -3.01408 4.23974 -80.9228
rradius 37.1907
rwrist 27.257
rhand -11.1811 -3.6049
rfingers 7.12502
rthumb 14.846 -33.053
lclavicle 1.55052e-014 -4.37326e-015
lhumerus -0.391818 -15.483 78.9588
lradius 33.2407
lwrist -37.7464
lhand -13.4354 6.19063
lfingers 7.12502
lthumb 12.6735 35.7861
rfemur -76.1612 3.9965 20.9539
rtibia 103.218
rfoot -20.5424 -26.9178
rtoes -21.4996
lfemur -71.6144 0.220953 -25.0438
ltibia 102.371
lfoot -15.8233 30.1744
ltoes -1.64247
77
root 1.57628 10.9302 24.3377 -174.506 -9.99129 181.112
lowerback 33.6776 4.18682 -2.63148
upperback 13.5371 0.489648 -0.000993973
thorax -2.39866 -1.46148 1.29801
lowerneck -36.4028 -3.72815 -3.05926
upperneck 30.2436 -6.68587 6.33426
head 17.573 -2.11121 1.71157
rclavicle 2.38542e-015 -1.15295e-014
rhumerus -2.76692 4.32154 -80.7543
rradius 36.8927
rwrist 27.7743
rhand -11.0865 -3.49069
rfingers 7.12502
rthumb 14.9372 -32.9321
lclavicle 2.38542e-015 -1.15295e-014
lhumerus 0.240043 -15.8153 78.7275
lradius 33.3775
lwrist -37.9148
lhand -13.3796 6.11358
lfingers 7.12502
lthumb 12.7272 35.7057
rfemur -76.6913 4.11242 21.0595
rtibia 103.552
rfoot -20.7298 -27.033
rtoes -19.1058
lfemur -72.6629 0.516098 -24.9225
ltibia 104.015
lfoot -16.3254 30.2886
ltoes -2.14449
78
root 1.60059 10.843 24.2872 -174.296 -10.0295 181.2
lowerback 34.0645 4.30715 -2.69042
upperback 13.6196 0.545551 0.0635541
thorax -2.45104 -1.4631 1.37756
lowerneck -36.4393 -3.80009 -3.10344
upperneck 29.9985 -6.77005 6.45631
head 17.4697 -2.1281 1.75015
rclavicle 1.47101e-014 9.54166e-015
rhumerus -2.54256 4.39533 -80.603
rradius 36.6223
rwrist 28.3348
rhand -11.0189 -3.34502
rfingers 7.12502
rthumb 15.0023 -32.7816
lclavicle 1.47101e-014 9.54166e-015
lhumerus 0.820716 -16.121 78.4886
lradius 33.5633
lwrist -38.0662
lhand -13.2926 6.01514
lfingers 7.12502
lthumb 12.8111 35.602
rfemur -76.8428 4.13938 21.2258
rtibia 103.783
rfoot -21.4044 -27.2382
rtoes -17.1202
lfemur -73.4526 0.82617 -24.7824
ltibia 105.372
lfoot -16.7664 30.3315
ltoes -2.72135
79
root 1.62439 10.709 24.2247 -174.067 -10.1027 181.269
lowerback 34.4261 4.39792 -2.73203
upperback 13.69 0.576572 0.108684
thorax -2.5047 -1.47213 1.43559
lowerneck -36.5191 -3.8656 -3.12982
upperneck 29.7949 -6.85327 6.56162
head 17.3957 -2.1441 1.77878
rclavicle -1.23246e-014 -1.43125e-014
rhumerus -2.34514 4.43235 -80.4951
rradius 36.3735
rwrist 28.9366
rhand -10.9978 -3.18802
rfingers 7.12502
rthumb 15.0226 -32.623
lclavicle -1.23246e-014 -1.43125e-014
lhumerus 1.33538 -16.4256 78.2272
lradius 33.8103
lwrist -38.1696
lhand -13.1877 5.88765
lfingers 7.12502
lthumb 12.9122 35.4682
rfemur -77.3405 4.11368 21.4479
rtibia 104.586
rfoot -22.544 -27.5011
rtoes -15.7642
lfemur -74.5892 1.05376 -24.6591
ltibia 107.06
lfoot -17.1286 30.3873
ltoes -3.36338
80
root 1.64848 10.5732 24.1626 -173.82 -10.2071 181.309
lowerback 34.7551 4.47014 -2.7837
upperback 13.7591 0.585891 0.148054
thorax -2.54639 -1.49022 1.49966
lowerneck -36.5941 -3.93075 -3.16553
upperneck 29.5805 -6.92971 6.66927
head 17.3158 -2.1586 1.81138
rclavicle -2.42517e-014 -2.34566e-014
rhumerus -2.15661 4.45568 -80.4089
rradius 36.1525
rwrist 29.5512
rhand -11.0431 -3.00702
rfingers 7.12502
rthumb 14.9789 -32.4453
lclavicle -2.42517e-014 -2.34566e-014
lhumerus 1.79969 -16.7219 77.9576
lradius 34.1203
lwrist -38.193
lhand -13.0739 5.76304
lfingers 7.12502
lthumb 13.022 35.3366
rfemur -77.9118 4.01857 21.7022
rtibia 105.635
rfoot -24.0344 -27.706
rtoes -14.9148
lfemur -75.7531 1.23068 -24.5504
ltibia 108.74
lfoot -17.4239 30.4466
ltoes -4.03937
81
root 1.67272 10.4355 24.1012 -173.545 -10.3434 181.301
lowerback 35.0723 4.5193 -2.85533
upperback 13.8114 0.566567 0.169591
thorax -2.60006 -1.51875 1.56515
lowerneck -36.6202 -3.98093 -3.19469
upperneck 29.3655 -6.99413 6.7826
head 17.2253 -2.16883 1.84816
rclavicle 3.97569e-015 4.09496e-014
rhumerus -1.99879 4.46864 -80.3603
rradius 35.9891
rwrist 30.067
rhand -11.1005 -2.83685
rfingers 7.12502
rthumb 14.9237 -32.2792
lclavicle 3.97569e-015 4.09496e-014
lhumerus 2.19687 -17.0031 77.6778
lradius 34.4812
lwrist -38.1745
lhand -12.987 5.62725
lfingers 7.12502
lthumb 13.1058 35.1954
rfemur -78.623 3.84444 21.9554
rtibia 106.938
rfoot -25.6678 -27.779
rtoes -14.9915
lfemur -76.9231 1.33928 -24.4784
ltibia 110.426
lfoot -17.683 30.5576
ltoes -4.74668
82
root 1.69705 10.2974 24.0407 -173.255 -10.5045 181.24
lowerback 35.3989 4.55511 -2.95357
upperback 13.8513 0.523817 0.179522
thorax -2.66851 -1.55726 1.64043
lowerneck -36.6863 -4.02552 -3.20786
upperneck 29.1318 -7.04108 6.86655
head 17.1303 -2.17361 1.8729
rclavicle 2.8625e-014 -9.93923e-015
rhumerus -1.86646 4.48726 -80.3289
rradius 35.8717
rwrist 30.5685
rhand -11.2238 -2.68343
rfingers 7.12502
rthumb 14.8049 -32.1346
lclavicle 2.8625e-014 -9.93923e-015
lhumerus 2.53916 -17.2955 77.3897
lradius 34.9048
lwrist -38.0766
lhand -12.9301 5.51359
lfingers 7.12502
lthumb 13.1605 35.0783
rfemur -79.5063 3.60299 22.1891
rtibia 108.4
rfoot -27.0905 -27.7358
rtoes -14.5048
lfemur -78.0844 1.39088 -24.4547
ltibia 112.07
lfoot -17.8947 30.6941
ltoes -5.45123
